<svg width="680" height="380" viewBox="0 0 680 380" fill="none" xmlns="http://www.w3.org/2000/svg">
<g clip-path="url(#clip0_2001_67)">
<path d="M673 311.539L493.911 341.195C493.994 339.109 494.038 337.013 494.038 334.906C494.038 322.639 492.612 310.705 489.924 299.258L673 311.539ZM188.782 294.277C185.282 307.228 183.415 320.849 183.415 334.906C183.415 335.166 183.419 335.425 183.42 335.684L7 305.7L188.782 294.277ZM214.666 241.456C208.039 250.24 202.323 259.749 197.659 269.845L78.583 193.143L214.666 241.456ZM479.467 269.143C474.855 259.291 469.239 250.004 462.751 241.411L595.914 194.135L479.467 269.143ZM430.692 209.741C421.114 202.692 410.699 196.715 399.621 191.989L493.638 68.2013L430.692 209.741ZM281.652 190.417C270.1 194.984 259.227 200.898 249.226 207.962L184.59 62.6154L281.652 190.417ZM359.708 181.003C352.846 180.076 345.842 179.595 338.727 179.595C331.61 179.595 324.606 180.076 317.743 181.003L338.727 0.220825L359.708 181.003Z" fill="#FF3269"/>
<path d="M339.455 207.303C409.526 207.303 466.329 264.106 466.329 334.177C466.329 344.729 465.039 354.979 462.611 364.78L338.727 296.261L216.124 364.07C213.809 354.485 212.581 344.474 212.581 334.177C212.581 264.106 269.385 207.303 339.455 207.303Z" fill="#FF3269"/>
<path d="M271.163 380.136L320.837 327.863L291.326 379.004L271.163 380.136Z" fill="#FF3269"/>
<path d="M238.296 367.253L275.051 345.713L249.926 369.911L238.296 367.253Z" fill="#FF3269"/>
<path d="M360.832 321.376L340 302.975L353.079 321.628L360.832 321.376Z" fill="#FF3269"/>
<path d="M419.305 371.879L378.067 335.196L403.909 372.326L419.305 371.879Z" fill="#FF3269"/>
</g>
<defs>
<clipPath id="clip0_2001_67">
<rect width="680" height="380" fill="white"/>
</clipPath>
</defs>
</svg>
