<svg width="680" height="680" viewBox="0 0 680 680" fill="none" xmlns="http://www.w3.org/2000/svg">
<path d="M673 428.539L493.911 458.195C493.994 456.109 494.038 454.013 494.038 451.906C494.038 439.639 492.612 427.705 489.924 416.258L673 428.539ZM188.782 411.277C185.282 424.228 183.415 437.849 183.415 451.906C183.415 452.166 183.419 452.425 183.42 452.684L7 422.7L188.782 411.277ZM214.666 358.456C208.039 367.24 202.323 376.749 197.659 386.845L78.583 310.143L214.666 358.456ZM479.467 386.143C474.855 376.291 469.239 367.004 462.751 358.411L595.914 311.135L479.467 386.143ZM430.692 326.741C421.114 319.692 410.699 313.715 399.621 308.989L493.638 185.201L430.692 326.741ZM281.652 307.417C270.1 311.984 259.227 317.898 249.226 324.962L184.59 179.615L281.652 307.417ZM359.708 298.003C352.846 297.076 345.842 296.595 338.727 296.595C331.61 296.595 324.606 297.076 317.743 298.003L338.727 117.221L359.708 298.003Z" fill="#FF3269"/>
<path d="M339.455 324.303C409.526 324.303 466.329 381.106 466.329 451.177C466.329 461.729 465.039 471.979 462.611 481.78L338.727 413.261L216.124 481.07C213.809 471.485 212.581 461.474 212.581 451.177C212.581 381.106 269.385 324.303 339.455 324.303Z" fill="#FF3269"/>
<path d="M271.163 497.136L320.837 444.863L291.326 496.004L271.163 497.136Z" fill="#FF3269"/>
<path d="M238.296 484.253L275.051 462.713L249.927 486.911L238.296 484.253Z" fill="#FF3269"/>
<path d="M360.832 438.376L340 419.975L353.079 438.628L360.832 438.376Z" fill="#FF3269"/>
<path d="M419.305 488.879L378.067 452.196L403.909 489.326L419.305 488.879Z" fill="#FF3269"/>
</svg>
